<svg xmlns="http://www.w3.org/2000/svg" class="full-hidden">
    <!--CURVED_LINE-->
    <symbol id="logo-svg" viewBox="0 0 2216.88 272">
        <path fill="#fff" d="M103.85,239.2c31.66,0,63.32,0,94.98,0,6,0,8.24-2.28,8.27-8.44,.03-7.5,.01-14.99,0-22.49,0-6.15-2.15-8.35-8.27-8.35-20.83-.02-41.66,.02-62.49-.01-26.66-.03-53.32-.1-79.98-.16-7.18-.02-14.31-.77-21.33-2.2-17.31-3.53-25.04-12.16-26.6-31.17-1.05-12.76-1.18-25.62,.45-38.39,1.81-14.22,9.15-22.54,23.03-26.15,8.92-2.32,18.05-3.04,27.22-3.05,46.32-.04,92.65-.06,138.97,.01,10.19,.02,20.27,1.16,29.89,4.86,7.87,3.03,14.22,7.86,18.22,15.47,3.02,5.76,.54,10.16-5.81,10.16-58.82,0-117.64,0-176.46,0-8.26,0-9.16,.89-9.16,9.09,0,6.5-.02,13,0,19.49,.02,5.8,2.26,8.03,8.07,8.04,43.99,0,87.98-.08,131.97,.06,10.96,.04,21.96,.25,32.78,2.66,15.99,3.55,24.06,11.2,25.83,27.47,1.65,15.21,1.69,30.68-.03,45.89-1.86,16.53-10.4,24.5-26.87,27.69-8.7,1.68-17.5,2.21-26.33,2.2-51.32-.04-102.64-.05-153.96-.2-9.68-.03-19.25-1.18-28.41-4.68-10.13-3.87-15.55-11.53-17.69-21.82-.8-3.84,1.69-6.22,6.75-6.25,12-.09,23.99-.03,35.99-.03,20.32,0,40.64,0,60.96,0,0,.1,0,.2,0,.3Z"/>
        <path fill="#fff" d="M431.48,98.77c30.48,0,60.96-.03,91.44,.02,9.35,.01,18.62,.92,27.54,3.97,13.24,4.53,20.15,13.65,20.39,27.61,.25,14.15,.24,28.31,0,42.46-.24,14.16-7.25,23.35-20.77,27.85-8.94,2.97-18.22,3.85-27.56,3.87-45.47,.07-90.94,.03-136.41,.03-7.6,0-10.01,2.43-10.01,10.05,0,17.65-.1,35.31,.08,52.96,.04,3.53-.92,4.44-4.42,4.4-14.65-.2-29.31-.16-43.97-.02-2.98,.03-3.94-.64-3.94-3.82,.1-53.62,.07-107.25,.09-160.87,0-4.73,4.74-8.5,10.6-8.5,32.31-.01,64.63,0,96.94,0Zm10.68,75.82c18.16,0,36.31,.03,54.47-.02,5-.01,10-.29,14.8-1.88,4.5-1.5,7.38-4.48,7.63-9.42,.22-4.32,.36-8.64,.37-12.97,.04-18.1-3.06-21.41-21.46-21.49-37.81-.16-75.62-.06-113.44-.04-5.14,0-8.42,3.46-8.43,8.75-.02,8.99-.02,17.99,0,26.98,0,6.26,3.82,10.07,10.1,10.08,18.66,0,37.31,0,55.97,0Z"/>
        <path fill="#fff" d="M1060.8,129.76c-30,0-60,0-89.99,0-7.93,0-10.08,2.08-10.08,9.72,0,29.33,0,58.65,0,87.98,0,9.52,2.19,11.75,11.55,11.75,59,0,117.99,0,176.99,0q6.14,0,5.11,6c-2.7,15.69-11.99,23.27-31.06,25.51-6.63,.78-13.27,1.17-19.94,1.17-49.83-.03-99.65-.07-149.48-.18-7.5-.02-14.91-1.04-22.25-2.79-13.98-3.34-21.68-12.21-23.56-26.27-.46-3.46-.69-6.97-.7-10.45-.05-31.33-.06-62.65,0-93.98,0-3.81,.22-7.69,.91-11.43,3.13-16.84,12.83-24.71,32.92-26.9,6.79-.74,13.6-1.15,20.44-1.13,49.99,.1,99.99,.04,149.98,.27,9.14,.04,18.25,1.2,26.9,4.68,10.07,4.05,15.27,11.71,17.38,22.06,.72,3.56-.44,4.08-3.64,4.07-30.5-.1-60.99-.06-91.49-.06Z"/>
        <path d="M2216.88,.48c-15.1,2.07-30.2,4.11-45.29,6.23-25.83,3.63-51.42,8.56-76.91,14.07-43.57,9.43-86.48,21.26-128.7,35.56-52.73,17.86-103.86,39.52-153.13,65.49-50.65,26.7-98.47,57.76-143.03,93.75-20.21,16.32-39.59,33.6-57.97,51.97-3.04,3.03-6.12,4.34-10.48,4.29-20.16-.23-40.33-.3-60.48,.02-5.83,.09-6.44-4.5-8.57-7.67-1.99-2.96,1.25-4.47,2.9-6.02,25.8-24.13,53.06-46.47,82.03-66.73,30.05-21.02,61.29-40.05,93.66-57.27,58.35-31.04,119.34-55.69,182.31-75.58,46.31-14.62,93.4-26.22,141.03-35.55,33.9-6.64,68.04-11.9,102.34-15.98,21.94-2.61,43.91-4.99,65.98-6.37,4.79-.3,9.54-1.26,14.3-.21Z"/>
        <path fill="#fff" d="M1345.85,271.9c-37.16,0-74.31-.07-111.47,.1-4.23,.02-5.16-1.2-5.14-5.29,.17-34.98,.18-69.97-.01-104.95-.02-4.3,1.26-5.1,5.29-5.09,49.49,.14,98.97,.13,148.46,.02,3.71,0,5.23,.63,5,4.77-.39,6.97-.31,14-.02,20.98,.14,3.49-.8,4.42-4.35,4.4-30.32-.15-60.65-.09-90.97-.09-7.25,0-9.92,2.6-9.92,9.65,0,12.33,0,24.66,0,36.98,0,5.57,3.19,8.76,8.89,8.8,9,.06,17.99,.02,26.99,.02,46.32,0,92.64,.05,138.96-.09,4.18-.01,5.94,.67,5.59,5.36-.48,6.29-.49,12.68,0,18.97,.38,4.88-1.55,5.56-5.83,5.54-37.16-.15-74.31-.09-111.47-.09Z"/>
        <path fill="#fff" d="M624.04,233.9c8.9-10.55,17-20.04,24.94-29.65,1.73-2.1,3.81-1.66,5.9-1.66,31.33-.02,62.65,0,93.98-.06,2.11,0,4.58,1.03,6-2.04,1.36-2.94,1.01-5.05-.9-7.69-14.1-19.59-27.98-39.33-42.05-58.94-1.71-2.39-1.95-3.9,.07-6.31,9.19-10.98,18.17-22.14,27.16-33.29,1.54-1.91,2.43-3.21,4.58-.3,43.46,58.97,87.01,117.87,130.54,176.78,.08,.11,.05,.29,.07,.52-.61,1.14-1.75,.61-2.62,.61-18.5,.04-36.99-.01-55.49,.08-2.55,.01-4.21-.65-5.8-2.83-6.37-8.75-13.01-17.29-19.5-25.96-1.42-1.9-3.17-3.27-5.1-4.64-5.25-3.74-10.9-4.76-17.31-4.73-45.99,.21-91.98,.11-137.97,.11h-6.5Z"/>
        <path fill="#fff" d="M1347.89,98.77c37.63,0,75.27,.05,112.9-.08,3.79-.01,5.19,.75,5.01,4.84-.36,7.81-.32,15.65-.01,23.47,.15,3.8-1.02,4.71-4.73,4.69-31.47-.15-62.94-.09-94.42-.09-43.96,0-87.92-.07-131.88,.11-4.35,.02-5.77-.94-5.52-5.45,.41-7.64,.34-15.32,.02-22.97-.16-3.86,1.09-4.62,4.75-4.61,37.97,.14,75.93,.09,113.9,.09Z"/>
        <path fill="#fff" d="M1683.26,216.57c14.25-11.97,28.42-23,42.81-33.76,2.48-1.85,3.65-.08,5.11,.98,18.69,13.62,37.34,27.29,56.01,40.94,16.92,12.38,33.84,24.75,50.73,37.17,1.45,1.06,4.07,1.76,2.6,4.49-1.3,2.42-1.31,5.65-5.73,5.61-24.31-.22-48.63-.11-72.94-.1-1.51,0-2.89-.14-4.22-1.11-24.56-17.95-49.16-35.86-74.36-54.22Z"/>
        <path fill="#fff" d="M1671.96,140.42c-7.79,4.04-15.32,7.84-22.76,11.82-9.22,4.94-18.43,9.92-27.5,15.14-2.56,1.48-4.18,1.35-6.56-.39-26.54-19.48-53.2-38.81-79.75-58.27-1.2-.88-4.26-1.3-2.71-3.78,1.66-2.67,1.43-7.19,6.43-7.03,5.49,.17,10.98,.04,16.48,.04,18.14,0,36.29,0,54.43,0,2.16,0,4.12,.07,6.08,1.52,18.45,13.64,36.99,27.16,55.85,40.97Z"/>
    </symbol>
</svg>
