<?xml version="1.0" encoding="UTF-8"?>
<svg xmlns="http://www.w3.org/2000/svg" viewBox="0 0 36 36">
  <rect width="100%" height="100%" fill="#0b141d"/>
  <path fill="#d35718" d="M36,8.91c-8.95,4.26-17.11,9.62-24.57,16.23-1.81,1.61-5.34,1.28-8.08,1.84-.2-.49-.4-.98-.6-1.47,3.06-2.43,5.98-5.06,9.2-7.25,7.42-5.06,15.18-9.51,24.04-11.61v2.26Z"/>
  <path fill="#fff" d="M18.73,21.36c3.93-3.75,6.3-2.88,13.69,4.73-5.83,2.06-9.66-1.2-13.69-4.73Z"/>
  <path fill="#fff" d="M12.02,16.41c-2.92-2.18-5.56-4.15-8.66-6.47,5.37-1.52,9.22-.14,12.75,3.68-1.3,.89-2.56,1.75-4.09,2.79Z"/>
</svg>
